<svg width="38" height="33" viewBox="0 0 38 33" fill="none" xmlns="http://www.w3.org/2000/svg">
<path d="M19.153 20.6074C18.7956 20.4579 18.394 20.4377 18.0245 20.5508C17.5988 20.7004 17.2414 20.9954 17.0125 21.3915C16.8559 21.6784 16.7957 22.0098 16.8438 22.3372C16.6591 22.2442 16.4985 22.1391 16.3218 22.0664C15.9523 21.929 15.5427 21.9451 15.1813 22.1068C14.8158 22.2321 14.5066 22.4827 14.3098 22.8181C14.1371 23.1697 14.0729 23.5658 14.1251 23.9538C14.1773 24.3417 14.3419 24.7095 14.5989 25.0005C15.0286 25.4612 15.5628 25.8088 16.1531 26.0109C17.0286 26.318 17.9482 26.4878 18.8719 26.512C18.9241 26.5201 18.9803 26.512 19.0285 26.4878C19.0767 26.4635 19.1169 26.4231 19.141 26.3706C19.6952 25.4855 20.0847 24.5034 20.2815 23.4769C20.4461 22.7656 20.3417 22.0179 19.9923 21.3793C19.8036 21.0318 19.5064 20.765 19.149 20.6155L19.153 20.6074Z" fill="#F4C02F"/>
<path d="M11.0293 21.8764C11.4871 24.1801 12.6477 26.0634 14.4629 27.5143C17.4347 29.8907 20.8603 30.6909 24.587 30.3029C27.6151 29.9877 30.2575 28.8237 32.394 26.6009C34.3377 24.5842 35.3015 22.0987 35.675 19.3667C36.2453 15.1959 35.2895 11.4212 32.631 8.13949C30.0527 4.95482 26.6834 3.0432 22.7036 2.31574C17.6033 1.3862 12.8485 2.3319 8.65184 5.49637C5.30255 8.02229 3.21427 11.3767 2.79661 15.6122C2.37895 19.8719 3.76043 23.5698 6.65592 26.6858C8.35466 28.5125 10.4108 29.8179 12.7119 30.7313C12.8043 30.7677 12.8967 30.8 12.989 30.8404C13.6597 31.1193 13.9207 31.5921 13.7119 32.1377C13.5232 32.6308 12.8605 32.9501 12.3103 32.6955C10.8927 32.0327 9.41888 31.4345 8.12173 30.5777C4.27447 28.0316 1.71231 24.5236 0.832822 19.9123C-0.0988736 15.0262 1.11795 10.6614 4.24636 6.86239C7.41493 3.03108 11.5473 0.893141 16.4227 0.218216C21.796 -0.525414 26.7396 0.630446 31.133 3.85958C34.6911 6.47441 37.0605 9.93795 37.7754 14.3634C38.7472 20.3771 36.7553 27.1263 30.7234 30.4605C25.1212 33.5563 17.6194 32.9056 12.8123 28.8197C9.55944 26.0513 8.23016 22.4261 8.71609 18.2149C9.37069 12.5204 13.479 8.05462 19.0732 6.78964C20.8603 6.3855 22.6273 6.48249 24.2939 7.35141C26.093 8.28903 26.6512 9.8652 25.8159 11.7283C24.9927 13.5712 23.571 14.9211 22.0369 16.1416C18.7961 18.7241 15.2179 20.664 11.214 21.7633C11.1578 21.7795 11.1136 21.8199 11.0293 21.8724V21.8764ZM10.7843 19.7587C10.8807 19.7668 10.9208 19.783 10.957 19.7708C15.4267 18.3685 19.4065 16.1295 22.6514 12.6902C23.1694 12.1405 23.559 11.4292 23.8762 10.7341C24.2256 9.9622 24.0007 9.51764 23.2618 9.10945C22.1052 8.4709 20.8683 8.40219 19.6234 8.70934C16.2018 9.55401 13.6396 11.5747 11.8927 14.6261C10.9891 16.2063 10.8445 17.9764 10.7883 19.7587H10.7843Z" fill="#6096B9"/>
</svg>