<svg width="172" height="46" viewBox="0 0 172 46" fill="none" xmlns="http://www.w3.org/2000/svg">
<g clip-path="url(#clip0_3091_1762)">
<path d="M5.68765 46C4.49893 46 3.49495 45.5878 2.68373 44.7673C1.8685 43.9469 1.46289 42.9083 1.46289 41.6554C1.46289 40.4026 1.8685 39.3679 2.68373 38.5556C3.49897 37.7433 4.49893 37.3351 5.68765 37.3351C6.87636 37.3351 7.87633 37.7433 8.68755 38.5556C9.49877 39.3679 9.90438 40.4026 9.90438 41.6595C9.90438 42.9164 9.49877 43.955 8.68755 44.7714C7.87633 45.5878 6.87636 45.996 5.68765 45.996V46ZM7.91248 44.0884C8.49479 43.4741 8.78795 42.6658 8.78795 41.6635C8.78795 40.6612 8.49479 39.8529 7.91248 39.2467C7.33017 38.6364 6.58722 38.3333 5.67962 38.3333C4.77202 38.3333 4.02907 38.6364 3.44274 39.2467C2.85642 39.8529 2.56326 40.6612 2.56326 41.6635C2.56326 42.6658 2.85642 43.4781 3.45078 44.0884C4.04112 44.6986 4.78808 45.0058 5.68765 45.0058C6.58722 45.0058 7.33017 44.6986 7.91248 44.0884Z" fill="#284C77"/>
<path d="M20.7231 42.4112V45.9151H19.6348V37.428H22.3295C23.2652 37.428 23.976 37.6624 24.4659 38.1272C24.9559 38.592 25.2008 39.1618 25.2008 39.8368C25.2008 40.5117 25.0201 41.0734 24.6627 41.522C24.3053 41.9706 23.7631 42.2536 23.0483 42.3667L25.3334 45.9192H23.968L21.7913 42.4152H20.7271L20.7231 42.4112ZM20.7231 38.3212V41.5301H22.3254C22.9238 41.5301 23.3696 41.3887 23.6587 41.1058C23.9519 40.8229 24.0965 40.4309 24.0965 39.9257C24.0965 38.8547 23.5061 38.3212 22.3254 38.3212H20.7231Z" fill="#284C77"/>
<path d="M39.1293 45.9879C37.9847 45.9879 37.0048 45.5797 36.1896 44.7633C35.3744 43.9469 34.9688 42.9123 34.9688 41.6594C34.9688 40.4066 35.3744 39.372 36.1896 38.5596C37.0048 37.7473 38.0048 37.3391 39.1935 37.3391C40.0569 37.3391 40.824 37.5452 41.4987 37.9655C42.1733 38.3818 42.6713 38.9799 42.9886 39.768H41.6713C41.1774 38.8142 40.3501 38.3333 39.1935 38.3333C38.2899 38.3333 37.547 38.6364 36.9607 39.2467C36.3743 39.8529 36.0812 40.6612 36.0812 41.6635C36.0812 42.6658 36.3743 43.4781 36.9607 44.0884C37.547 44.6986 38.2779 45.0058 39.1533 45.0058C40.0288 45.0058 40.7276 44.7512 41.2617 44.246C41.7918 43.7408 42.101 43.0537 42.1894 42.1889H38.7638V41.3078H43.3379V42.1889C43.2255 43.2841 42.7838 44.1894 42.0087 44.9088C41.2336 45.6282 40.2738 45.9879 39.1293 45.9879Z" fill="#284C77"/>
<path d="M58.8031 45.9151L58.1565 44.052H54.4699L53.8233 45.9151H52.7109L55.7269 37.428H56.9236L59.9276 45.9151H58.8031ZM54.7791 43.171H57.8433L56.3092 38.786L54.7751 43.171H54.7791Z" fill="#284C77"/>
<path d="M75.2041 37.428H76.2924V45.9151H75.2041L70.8227 39.178V45.9151H69.7344V37.428H70.8227L75.2041 44.1652V37.428Z" fill="#284C77"/>
<path d="M86.4688 45.9151V37.428H87.5571V45.9151H86.4688Z" fill="#284C77"/>
<path d="M102.725 37.428V38.3212L98.6886 45.0341H102.725V45.9151H97.4316V45.0341L101.476 38.3212H97.4316V37.428H102.725Z" fill="#284C77"/>
<path d="M118.323 45.9151L117.676 44.052H113.989L113.343 45.9151H112.23L115.246 37.428H116.443L119.447 45.9151H118.323ZM114.299 43.171H117.363L115.829 38.786L114.295 43.171H114.299Z" fill="#284C77"/>
<path d="M131.876 37.428C133.218 37.428 134.274 37.812 135.049 38.5799C135.824 39.3477 136.209 40.3945 136.209 41.716C136.209 43.0376 135.824 44.0682 135.049 44.8078C134.274 45.5474 133.218 45.9151 131.876 45.9151H129.254V37.428H131.876ZM130.342 45.0583H131.876C132.92 45.0583 133.72 44.7633 134.27 44.1773C134.82 43.5913 135.097 42.7668 135.097 41.716C135.097 40.6653 134.82 39.8408 134.27 39.2548C133.72 38.6688 132.92 38.3737 131.876 38.3737H130.342V45.0624V45.0583Z" fill="#284C77"/>
<path d="M149.76 46C148.571 46 147.567 45.5878 146.756 44.7673C145.941 43.9469 145.535 42.9083 145.535 41.6554C145.535 40.4026 145.941 39.3679 146.756 38.5556C147.571 37.7433 148.571 37.3351 149.76 37.3351C150.949 37.3351 151.949 37.7433 152.76 38.5556C153.571 39.3679 153.973 40.4026 153.973 41.6595C153.973 42.9164 153.567 43.955 152.76 44.7714C151.949 45.5878 150.949 45.996 149.76 45.996V46ZM151.985 44.0884C152.567 43.4741 152.86 42.6658 152.86 41.6635C152.86 40.6612 152.571 39.8529 151.985 39.2467C151.402 38.6364 150.659 38.3333 149.752 38.3333C148.844 38.3333 148.101 38.6364 147.515 39.2467C146.929 39.8529 146.636 40.6612 146.636 41.6635C146.636 42.6658 146.933 43.4781 147.523 44.0884C148.113 44.6986 148.86 45.0058 149.76 45.0058C150.659 45.0058 151.402 44.6986 151.985 44.0884Z" fill="#284C77"/>
<path d="M164.795 42.4112V45.9151H163.707V37.428H166.402C167.337 37.428 168.048 37.6624 168.538 38.1272C169.028 38.592 169.273 39.1618 169.273 39.8368C169.273 40.5117 169.092 41.0734 168.735 41.522C168.374 41.9706 167.835 42.2536 167.121 42.3667L169.406 45.9192H168.04L165.86 42.4152H164.795V42.4112ZM164.795 38.3212V41.5301H166.398C166.996 41.5301 167.442 41.3887 167.731 41.1058C168.024 40.8229 168.169 40.4309 168.169 39.9257C168.169 38.8547 167.578 38.3212 166.398 38.3212H164.795Z" fill="#284C77"/>
<path d="M40.1562 8.17584H45.9231L51.4209 24.9237L56.8786 8.17584H62.6455L54.8064 29.6037H48.0034L40.1643 8.17584H40.1562Z" fill="#6096B9"/>
<path d="M74.7865 29.9109C71.6862 29.9109 69.1602 28.9005 67.2165 26.8758C65.2687 24.851 64.2969 22.1755 64.2969 18.8494C64.2969 15.5233 65.2768 12.8599 67.2365 10.8635C69.1963 8.86697 71.7344 7.86469 74.8467 7.86469C77.9591 7.86469 80.5172 8.83868 82.5131 10.7867C84.5131 12.7347 85.513 15.3293 85.513 18.5786C85.513 19.3263 85.4608 20.0214 85.3604 20.6681H69.8308C69.9593 22.0624 70.4694 23.1819 71.3689 24.0346C72.2645 24.8874 73.405 25.3117 74.7905 25.3117C76.6619 25.3117 78.0434 24.5398 78.943 22.9919H84.7861C84.1717 25.0288 82.979 26.6939 81.212 27.9831C79.445 29.2723 77.3045 29.919 74.7945 29.919L74.7865 29.9109ZM78.3406 13.741C77.3808 12.8882 76.2202 12.4639 74.8628 12.4639C73.5054 12.4639 72.3689 12.8882 71.4613 13.741C70.5497 14.5937 70.0075 15.7253 69.8268 17.1439H79.8947C79.8184 15.7253 79.3004 14.5897 78.3366 13.741H78.3406Z" fill="#6096B9"/>
<path d="M95.1949 8.17588V11.3848C96.5523 9.03671 98.7571 7.86469 101.805 7.86469C104.239 7.86469 106.223 8.66894 107.761 10.2815C109.299 11.894 110.066 14.129 110.066 16.9903V29.5997H104.685V17.7622C104.685 16.085 104.263 14.8039 103.416 13.9148C102.572 13.0256 101.416 12.5811 99.9578 12.5811C98.5001 12.5811 97.3354 13.0256 96.48 13.9148C95.6206 14.8039 95.1909 16.0891 95.1909 17.7622V29.5997H89.7734V8.17588H95.1909H95.1949Z" fill="#6096B9"/>
<path d="M123.908 25.0409H126.482V29.6037H123.06C120.884 29.6037 119.205 29.1026 118.024 28.0963C116.844 27.0899 116.257 25.4289 116.257 23.1051V12.6215H113.988V8.17183H116.257V2.8775H121.679V8.17587H126.446V12.6255H121.679V23.1091C121.679 23.8042 121.843 24.3013 122.177 24.5964C122.51 24.8914 123.084 25.0409 123.908 25.0409Z" fill="#6096B9"/>
<path d="M132.362 26.8555C130.286 24.8186 129.25 22.1513 129.25 18.8494C129.25 15.5475 130.302 12.8923 132.403 10.8796C134.503 8.86697 137.109 7.86469 140.226 7.86469C143.342 7.86469 145.944 8.87101 148.049 10.8796C150.149 12.8923 151.201 15.5475 151.201 18.8494C151.201 22.1513 150.145 24.8186 148.032 26.8555C145.92 28.8924 143.298 29.9109 140.173 29.9109C137.049 29.9109 134.447 28.8924 132.37 26.8555H132.362ZM140.165 25.3077C141.675 25.3077 142.976 24.7459 144.069 23.6264C145.157 22.5029 145.703 20.9186 145.703 18.8696C145.703 16.8206 145.165 15.2404 144.089 14.133C143.013 13.0256 141.711 12.4679 140.189 12.4679C138.667 12.4679 137.378 13.0216 136.326 14.133C135.274 15.2404 134.752 16.8287 134.752 18.8898C134.752 20.951 135.278 22.5393 136.326 23.6466C137.378 24.754 138.659 25.3117 140.169 25.3117L140.165 25.3077Z" fill="#6096B9"/>
<path d="M19.153 20.6074C18.7956 20.4579 18.394 20.4377 18.0245 20.5508C17.5988 20.7004 17.2414 20.9954 17.0125 21.3915C16.8559 21.6784 16.7957 22.0098 16.8438 22.3372C16.6591 22.2442 16.4985 22.1391 16.3218 22.0664C15.9523 21.929 15.5427 21.9451 15.1813 22.1068C14.8158 22.2321 14.5066 22.4827 14.3098 22.8181C14.1371 23.1697 14.0729 23.5658 14.1251 23.9538C14.1773 24.3417 14.3419 24.7095 14.5989 25.0005C15.0286 25.4612 15.5628 25.8088 16.1531 26.0109C17.0286 26.318 17.9482 26.4878 18.8719 26.512C18.9241 26.5201 18.9803 26.512 19.0285 26.4878C19.0767 26.4635 19.1169 26.4231 19.141 26.3706C19.6952 25.4855 20.0847 24.5034 20.2815 23.4769C20.4461 22.7656 20.3417 22.0179 19.9923 21.3793C19.8036 21.0318 19.5064 20.765 19.149 20.6155L19.153 20.6074Z" fill="#F4C02F"/>
<path d="M11.0293 21.8764C11.4871 24.1801 12.6477 26.0634 14.4629 27.5143C17.4347 29.8907 20.8603 30.6909 24.587 30.3029C27.6151 29.9877 30.2575 28.8237 32.394 26.6009C34.3377 24.5842 35.3015 22.0987 35.675 19.3667C36.2453 15.1959 35.2895 11.4212 32.631 8.13949C30.0527 4.95482 26.6834 3.0432 22.7036 2.31574C17.6033 1.3862 12.8485 2.3319 8.65184 5.49637C5.30255 8.02229 3.21427 11.3767 2.79661 15.6122C2.37895 19.8719 3.76043 23.5698 6.65592 26.6858C8.35466 28.5125 10.4108 29.8179 12.7119 30.7313C12.8043 30.7677 12.8967 30.8 12.989 30.8404C13.6597 31.1193 13.9207 31.5921 13.7119 32.1377C13.5232 32.6308 12.8605 32.9501 12.3103 32.6955C10.8927 32.0327 9.41888 31.4345 8.12173 30.5777C4.27447 28.0316 1.71231 24.5236 0.832822 19.9123C-0.0988736 15.0262 1.11795 10.6614 4.24636 6.86239C7.41493 3.03108 11.5473 0.893141 16.4227 0.218216C21.796 -0.525414 26.7396 0.630446 31.133 3.85958C34.6911 6.47441 37.0605 9.93795 37.7754 14.3634C38.7472 20.3771 36.7553 27.1263 30.7234 30.4605C25.1212 33.5563 17.6194 32.9056 12.8123 28.8197C9.55944 26.0513 8.23016 22.4261 8.71609 18.2149C9.37069 12.5204 13.479 8.05462 19.0732 6.78964C20.8603 6.3855 22.6273 6.48249 24.2939 7.35141C26.093 8.28903 26.6512 9.8652 25.8159 11.7283C24.9927 13.5712 23.571 14.9211 22.0369 16.1416C18.7961 18.7241 15.2179 20.664 11.214 21.7633C11.1578 21.7795 11.1136 21.8199 11.0293 21.8724V21.8764ZM10.7843 19.7587C10.8807 19.7668 10.9208 19.783 10.957 19.7708C15.4267 18.3685 19.4065 16.1295 22.6514 12.6902C23.1694 12.1405 23.559 11.4292 23.8762 10.7341C24.2256 9.9622 24.0007 9.51764 23.2618 9.10945C22.1052 8.4709 20.8683 8.40219 19.6234 8.70934C16.2018 9.55401 13.6396 11.5747 11.8927 14.6261C10.9891 16.2063 10.8445 17.9764 10.7883 19.7587H10.7843Z" fill="#6096B9"/>
<path d="M153.497 14.3755C153.497 12.5164 154.28 10.9524 155.846 9.68739C157.413 8.42241 159.489 7.7879 162.083 7.7879C164.677 7.7879 166.754 8.41433 168.32 9.66719C169.886 10.92 170.717 12.6175 170.822 14.7594H165.28C165.127 12.9529 164.023 12.0476 161.971 12.0476C160.943 12.0476 160.147 12.2537 159.585 12.666C159.019 13.0782 158.738 13.648 158.738 14.3715C158.738 15.0949 159.16 15.6647 160.007 16.077C160.854 16.4892 161.878 16.8125 163.087 17.0469C164.292 17.2813 165.493 17.5683 166.685 17.9199C167.878 18.2674 168.898 18.8898 169.746 19.7789C170.593 20.6681 171.015 21.8522 171.015 23.3233C171.015 25.2592 170.199 26.8353 168.569 28.0478C166.938 29.2602 164.862 29.8664 162.332 29.8664C159.802 29.8664 157.734 29.2643 156.115 28.064C154.497 26.8636 153.614 25.1379 153.461 22.8949H159.003C159.208 24.7015 160.348 25.6067 162.429 25.6067C163.428 25.6067 164.236 25.3804 164.854 24.9278C165.469 24.4751 165.778 23.881 165.778 23.1455C165.778 22.4099 165.356 21.828 164.509 21.4036C163.661 20.9793 162.633 20.6479 161.429 20.4175C160.224 20.1831 159.023 19.9002 157.83 19.5647C156.638 19.2293 155.617 18.6271 154.77 17.7622C153.923 16.8974 153.501 15.7658 153.501 14.3715L153.497 14.3755Z" fill="#6096B9"/>
</g>
<defs>
<clipPath id="clip0_3091_1762">
<rect width="170.472" height="46" fill="white" transform="translate(0.539062)"/>
</clipPath>
</defs>
</svg>
